<svg width="16" height="13" viewBox="0 0 16 13" fill="none" xmlns="http://www.w3.org/2000/svg">
<path d="M5.03344 12.5672C11.0697 12.5672 14.3722 7.78914 14.3722 3.64685C14.3722 3.51253 14.3691 3.37522 14.3628 3.24089C15.0053 2.79711 15.5597 2.24742 16 1.61765C15.4017 1.87193 14.7664 2.03799 14.1159 2.11018C14.8009 1.71802 15.3137 1.10195 15.5594 0.376189C14.915 0.740942 14.2104 0.998244 13.4756 1.13707C12.9806 0.634598 12.326 0.301906 11.6131 0.190424C10.9003 0.0789424 10.1688 0.194881 9.53183 0.520315C8.89486 0.84575 8.38787 1.36255 8.08923 1.99082C7.7906 2.6191 7.71695 3.32384 7.87969 3.9961C6.575 3.93356 5.29862 3.60982 4.13332 3.04587C2.96802 2.48191 1.9398 1.69033 1.11531 0.722449C0.696266 1.41257 0.568038 2.2292 0.756687 3.00638C0.945337 3.78356 1.43671 4.46297 2.13094 4.90653C1.60975 4.89072 1.09998 4.75668 0.64375 4.51549V4.55429C0.643283 5.27852 0.905399 5.98055 1.38554 6.54105C1.86568 7.10155 2.53422 7.48593 3.2775 7.62885C2.7947 7.75502 2.28799 7.77341 1.79656 7.68258C2.0063 8.30541 2.41438 8.85017 2.96385 9.24081C3.51331 9.63145 4.17675 9.84848 4.86156 9.86163C3.69895 10.734 2.26278 11.2071 0.784375 11.2049C0.522191 11.2045 0.260266 11.1891 0 11.1589C1.5019 12.0793 3.24902 12.5681 5.03344 12.5672Z" fill="white"/>
</svg>
